<?xml version="1.0" encoding="utf-8"?>
<!-- Generator: Adobe Illustrator 21.0.2, SVG Export Plug-In . SVG Version: 6.00 Build 0)  -->
<svg version="1.1" id="Layer_1" xmlns="http://www.w3.org/2000/svg" xmlns:xlink="http://www.w3.org/1999/xlink" x="0px" y="0px"
	 width="240px" height="240" viewBox="45 0 240 240" xml:space="preserve">
<style type="text/css">
	.st0{opacity:0.07;fill:url(#SVGID_1_);}
	.st1{opacity:0.85;}
	.st2{fill:#ABB3E8;}
	.st3{fill:#9AA3DB;}
	.st4{fill:#A2A6E0;}
	.st5{fill:#ABB1E8;}
	.st6{fill:#B2D3FE;}
	.st7{fill:#AFC3F5;}
	.st8{fill:none;stroke:#000000;stroke-width:0.8482571;}
	.st9{fill:none;stroke:#000000;stroke-width:2.0012817;}
	.st10{opacity:0.3;}
	.st11{fill:none;stroke:#221F20;stroke-width:0.6490327;stroke-dasharray:3.8941829;}
</style>
<g>
	<g>
		<g>
	    <!-- shadow -->
				<linearGradient id="SVGID_1_" gradientUnits="userSpaceOnUse" x1="132.3885498" y1="201.4786682" x2="253.4629974" y2="134.8519287">
				<stop  offset="0" style="stop-color:#FFFFFF"/>
				<stop  offset="1" style="stop-color:#000000"/>
			</linearGradient>
			<polygon class="st0" points="188.2238617,120.4005585 125.9667358,131.9668121 85.9231949,146.5937958 67.7490768,185.3782959 
				102.0748444,210.2155151 163.9920959,237.0882263 241.3931732,219.739975 283.1198425,198.9864502 282.787384,157.1401367 
				243.412323,137.747818 			"/>
        <!-- faces -->
			<g class="st1">
				<polygon class="st2" points="142.0476227,1.1325501 170.7314148,25.1704426 107.3229218,91.5634689 48.4477539,97.2829285 
					73.7344589,43.1028404 				"/>
				<polygon class="st3" points="107.3229218,91.5634689 48.4477539,97.2829285 56.371521,173.5937347 116.0069656,223.1981506 
					153.3685913,177.4071045 				"/>
				<polygon class="st4" points="153.3685913,177.4071045 116.0069656,223.1981506 173.7510529,230.8270569 245.082901,196.8682404 
					242.063797,160.6206512 				"/>
				<polygon class="st5" points="258.2962036,64.0885849 251.121109,68.6683807 242.063797,160.6206512 245.082901,196.8682404 
					254.5188599,137.3482208 				"/>
				<polygon class="st6" points="251.121109,68.6683807 258.2962036,64.0885849 196.01651,25.9337254 142.0476227,1.1325501 
					170.7314148,25.1704426 				"/>
				<polygon class="st7" points="170.7314148,25.1704426 107.3229218,91.5634689 153.3685913,177.4071045 242.063797,160.6206512 
					251.121109,68.6683807 				"/>
			</g>
      <!-- foreground lines  -->
			<g>
				<line class="st8" x1="170.7314148" y1="25.1704426" x2="142.0476227" y2="1.1325501"/>
				<line class="st8" x1="170.7314148" y1="25.1704426" x2="251.121109" y2="68.6683807"/>
				<line class="st8" x1="251.121109" y1="68.6683807" x2="258.2962036" y2="64.0885849"/>
				<line class="st8" x1="251.121109" y1="68.6683807" x2="242.063797" y2="160.6206512"/>
				<line class="st8" x1="242.063797" y1="160.6206512" x2="245.082901" y2="196.8682404"/>
				<line class="st8" x1="242.063797" y1="160.6206512" x2="153.3685913" y2="177.4071045"/>
				<line class="st8" x1="153.3685913" y1="177.4071045" x2="116.0069656" y2="223.1981506"/>
				<line class="st8" x1="153.3685913" y1="177.4071045" x2="107.3229218" y2="91.5634689"/>
				<line class="st8" x1="107.3229218" y1="91.5634689" x2="48.4477539" y2="97.2829285"/>
				<line class="st8" x1="107.3229218" y1="91.5634689" x2="170.7314148" y2="25.1704426"/>
			</g>

      <!-- outline -->
			<polygon class="st9" points="142.0476227,1.1325501 73.7344589,43.1028404 48.4477539,97.2829285 56.371521,173.5937347 
				116.0069656,223.1981506 173.7510529,230.8270569 245.082901,196.8682404 254.5188599,137.3482208 258.2962036,64.0885849 
				196.01651,25.9337254 			"/>

        <!-- background-lines -->
			<g class="st10">
				<polygon class="st11" points="161.673996,75.1532898 92.9801636,85.8375015 83.1687927,158.3327637 148.4612427,191.1455231
					195.2614899,138.8747864 				"/>
				<line class="st11" x1="161.673996" y1="75.1532898" x2="196.01651" y2="25.9337254"/>
				<line class="st11" x1="195.2614899" y1="138.8747864" x2="254.5188599" y2="137.3482208"/>
				<line class="st11" x1="148.4612427" y1="191.1455231" x2="173.7510529" y2="230.8270569"/>
				<line class="st11" x1="83.1687927" y1="158.3327637" x2="56.371521" y2="173.5937347"/>
				<line class="st11" x1="92.9801636" y1="85.8375015" x2="73.7344589" y2="43.1028404"/>
			</g>
		</g>

    <!-- ".js" -->
		<g>
			<path d="M136.614151,106.9682465c0-1.6987305,0.5930176-3.0915527,1.7807617-4.1801758
				c1.1860352-1.088623,2.7258301-1.6320801,4.6193848-1.6320801c1.9379883,0,3.4931641,0.5332031,4.6689453,1.5996094
				s1.7636719,2.4711914,1.7636719,4.2126465s-0.5930176,3.1445312-1.7790527,4.2109375
				c-1.1877441,1.0681152-2.737793,1.5996094-4.6535645,1.5996094s-3.4606934-0.5314941-4.6364746-1.5996094
				C137.2020416,110.1127777,136.614151,108.7097015,136.614151,106.9682465z"/>
			<path d="M186.1678619,110.3964691c0,2.7634277-0.1623535,4.8654785-0.4870605,6.3010254
				c-0.324707,1.4372559-0.8544922,2.6352539-1.5893555,3.5922852c-1.2321777,1.6098633-2.947998,2.8334961-5.144043,3.6743164
				c-2.1960449,0.8374023-4.7749023,1.2543945-7.7348633,1.2543945c-2.4592285,0-4.267334-0.2495117-5.4208984-0.7485352
				c-1.1535645-0.5024414-1.7294922-1.2749023-1.7294922-2.3208008c0-0.6733398,0.2768555-1.2680664,0.8322754-1.7773438
				c0.5554199-0.5126953,1.2133789-0.769043,1.9755859-0.769043c0.5878906,0,1.5021973,0.0820312,2.7429199,0.2460938
				s2.1755371,0.2460938,2.8078613,0.2460938c3.1787109,0,5.4414062-0.7382812,6.7915039-2.2080078
				s2.0251465-4.0144043,2.0251465-7.6306152V86.7560883h-12.7678223c-2.1105957,0-3.4333496-0.1674805-3.9665527-0.5024414
				s-0.7998047-0.9450684-0.7998047-1.8320312c0-0.7570801,0.217041-1.3244629,0.652832-1.7021484
				c0.434082-0.3776855,1.088623-0.5673828,1.9584961-0.5673828h17.9716797c0.5827637,0,1.0424805,0.1196289,1.3774414,0.3588867
				s0.5041504,0.5673828,0.5041504,0.979248V110.3964691z M177.3512115,72.7475433
				c0-2.3276367,0.217041-3.8024902,0.652832-4.4228516s1.3603516-0.9313965,2.7753906-0.9313965
				c1.3278809,0,2.2045898,0.2512207,2.628418,0.7519531c0.4255371,0.5007324,0.6374512,1.7192383,0.6374512,3.6555176
				c0,1.9157715-0.1965332,3.0864258-0.5878906,3.5102539c-0.3913574,0.4255371-1.2851562,0.6374512-2.6779785,0.6374512
				c-1.4150391,0-2.3395996-0.2119141-2.7753906-0.6374512C177.5682526,74.8871918,177.3512115,74.0326996,177.3512115,72.7475433z"
				/>
			<path d="M202.0374908,109.970932v-5.8122559c0-0.9570312,0.1794434-1.642334,0.5383301-2.0559082
				s0.9416504-0.6203613,1.746582-0.6203613c0.8920898,0,1.5996094,0.6101074,2.1225586,1.8286133
				c0.3486328,0.7399902,0.6647949,1.2954102,0.9467773,1.6645508c0.9143066,1.1757812,2.2644043,2.1174316,4.048584,2.8249512
				c1.7858887,0.7075195,3.7563477,1.0612793,5.911377,1.0612793c2.3071289,0,4.15625-0.4682617,5.5507812-1.4047852
				c1.3928223-0.9348145,2.0883789-2.1652832,2.0883789-3.6896973c0-1.5449219-0.5605469-2.6437988-1.6816406-3.2966309
				c-1.1210938-0.654541-3.0419922-0.980957-5.7626953-0.980957h-1.7961426c-4.4399414,0-7.8254395-0.7724609-10.1547852-2.3173828
				s-3.4931641-3.7888184-3.4931641-6.7265625c0-2.8728027,1.1381836-5.1047363,3.4128418-6.6940918
				c2.2746582-1.5876465,5.46875-2.3840332,9.5822754-2.3840332c1.6765137,0,3.385498,0.2341309,5.1269531,0.7023926
				s2.6557617,0.7023926,2.7429199,0.7023926c0.2392578,0,0.6955566-0.2119141,1.3706055-0.6374512
				c0.6750488-0.4238281,1.3398438-0.6357422,1.9926758-0.6357422c0.7382812,0,1.2885742,0.2717285,1.6474609,0.8168945
				c0.3588867,0.543457,0.5400391,1.3603516,0.5400391,2.4472656v3.8212891c0,1.1535645-0.1743164,1.9858398-0.5229492,2.4985352
				c-0.3486328,0.5109863-0.9057617,0.767334-1.6645508,0.767334c-0.652832,0-1.4594727-0.5554199-2.4165039-1.6662598
				c-0.6750488-0.762207-1.2304688-1.3381348-1.6645508-1.7312012c-1.1552734-1.0646973-2.3840332-1.8320312-3.6896973-2.300293
				c-1.307373-0.4682617-2.842041-0.7023926-4.6040039-0.7023926c-2.0473633,0-3.6965332,0.4511719-4.9475098,1.3552246
				c-1.2526855,0.9023438-1.8781738,2.0507812-1.8781738,3.4436035c0,1.3723145,0.6425781,2.3515625,1.9277344,2.9394531
				c1.2834473,0.5878906,4.048584,0.9245605,8.2937012,1.0117188c4.5270996,0.109375,7.8356934,0.8989258,9.9257812,2.3669434
				c2.0883789,1.4697266,3.1342773,3.7392578,3.1342773,6.8085938c0,2.9377441-1.1552734,5.2893066-3.4589844,7.0529785
				c-2.3088379,1.7636719-5.4226074,2.6437988-9.3413086,2.6437988c-1.2407227,0-2.623291-0.112793-4.1459961-0.3417969
				c-1.5244141-0.2290039-3.4401855-0.6152344-5.7473145-1.1586914c-0.762207,0.5007324-1.4150391,0.875-1.9584961,1.1262207
				c-0.545166,0.2495117-1.0014648,0.3742676-1.3706055,0.3742676c-0.762207,0-1.3449707-0.2666016-1.748291-0.7998047
				S202.0374908,110.9723969,202.0374908,109.970932z"/>
		</g>
	</g>
</g>
</svg>
